<?xml version="1.0" encoding="UTF-8"?>
<svg width="18px" height="19px" viewBox="0 0 18 19" version="1.1" xmlns="http://www.w3.org/2000/svg" xmlns:xlink="http://www.w3.org/1999/xlink">
    <title>05 Iconography/Navigation/Search</title>
    <g id="Latest-1" stroke="none" stroke-width="1" fill="none" fill-rule="evenodd">
        <g id="ASR-Finder_Required-Expertise_Selected" transform="translate(-55.000000, -253.000000)" fill="#212121">
            <g id="06-Forms/Complex-Text-Input/With-Icon/Default" transform="translate(40.000000, 232.000000)">
                <g id="05-Iconography/Navigation/Search" transform="translate(15.000000, 21.500000)">
                    <path d="M7.53125,0 C11.6906445,0 15.0625,3.37185548 15.0625,7.53125 C15.0625,9.43118459 14.3589645,11.1667997 13.1981974,12.4917913 L17.9629284,17.2558216 L17.2558216,17.9629284 L12.4917913,13.1981974 C11.1667997,14.3589645 9.43118459,15.0625 7.53125,15.0625 C3.37185548,15.0625 0,11.6906445 0,7.53125 C0,3.37185548 3.37185548,0 7.53125,0 Z M7.53125,1 C3.92414023,1 1,3.92414023 1,7.53125 C1,11.1383598 3.92414023,14.0625 7.53125,14.0625 C11.1383598,14.0625 14.0625,11.1383598 14.0625,7.53125 C14.0625,3.92414023 11.1383598,1 7.53125,1 Z" id="Search-Icon"></path>
                </g>
            </g>
        </g>
    </g>
</svg>